<svg width="48" height="48" viewBox="0 0 48 48" fill="none" xmlns="http://www.w3.org/2000/svg">
<path d="M36.3555 13.0073C33.5733 8.74096 28.9535 6.19387 23.9996 6.19387C19.291 6.19387 14.8062 8.54439 12.002 12.4818L10.741 11.5837C13.8347 7.23909 18.7909 4.64551 23.9996 4.64551C29.4793 4.64551 34.5833 7.45494 37.6532 12.1613L36.3555 13.0073Z" fill="#151515"/>
<path d="M30.9555 37.1263L30.2811 35.7318C34.4703 33.7075 37.5648 29.7119 38.559 25.043L40.0741 25.3658C38.9816 30.4985 35.5722 34.8953 30.9555 37.1263V37.1263Z" fill="#151515"/>
<path d="M17.0388 37.1238C12.4387 34.8988 9.03386 30.5168 7.93231 25.401L9.4459 25.0752C10.4476 29.7278 13.5379 33.7103 17.7132 35.7293L17.0388 37.1238Z" fill="#151515"/>
<path d="M19.2275 37.0979V42.5807H28.7725V37.0979C28.7725 36.2216 28.0871 35.5117 27.2419 35.5117H25.9128L23.9996 38.684L22.0865 35.5117H20.7574C19.9129 35.5117 19.2275 36.2216 19.2275 37.0979V37.0979Z" fill="#555555"/>
<path d="M28.7717 43.3546H19.2275C18.7996 43.3546 18.4533 43.008 18.4533 42.5804V37.0976C18.4533 35.7954 19.4868 34.7373 20.7581 34.7373H22.0872C22.359 34.7373 22.6108 34.8798 22.7502 35.1119L23.9996 37.1842L25.2489 35.1119C25.3892 34.8798 25.6409 34.7373 25.912 34.7373H27.2411C28.5124 34.7373 29.5459 35.7961 29.5459 37.0976V42.5804C29.5459 43.008 29.1996 43.3546 28.7717 43.3546ZM20.0017 41.8062H27.9975V37.0976C27.9975 36.6493 27.6584 36.2857 27.2411 36.2857H26.3494L24.6623 39.0834C24.3829 39.5487 23.6155 39.5487 23.3362 39.0834L21.6491 36.2857H20.7573C20.3408 36.2857 20.0009 36.6501 20.0009 37.0976L20.0017 41.8062Z" fill="#151515"/>
<path d="M25.7623 40.2581L26.4492 39.1191V40.2581H25.7623ZM21.55 40.2581V39.1191L22.2369 40.2581H21.55Z" fill="#555555"/>
<path d="M21.2148 30.7598V29.7905C21.2148 28.1896 22.466 26.8828 23.9996 26.8828C25.5333 26.8828 26.7845 28.1889 26.7845 29.7905V30.7598C26.7845 32.3607 25.5333 33.6675 23.9996 33.6675C22.466 33.6675 21.2148 32.3607 21.2148 30.7598V30.7598Z" fill="white"/>
<path d="M23.9996 34.4407C22.0377 34.4407 20.4406 32.7895 20.4406 30.7588V29.7903C20.4406 27.7596 22.0377 26.1084 23.9996 26.1084C25.9615 26.1084 27.5586 27.7596 27.5586 29.7903V30.7588C27.5586 32.7895 25.9615 34.4407 23.9996 34.4407V34.4407ZM23.9996 27.6568C22.8909 27.6568 21.9889 28.6135 21.9889 29.7903V30.7588C21.9889 31.9355 22.8909 32.8923 23.9996 32.8923C25.1083 32.8923 26.0103 31.9355 26.0103 30.7588V29.7903C26.0103 28.6135 25.1083 27.6568 23.9996 27.6568V27.6568Z" fill="#151515"/>
<path d="M8.22944 14.2002C7.67678 15.0504 6.68184 15.6219 5.54627 15.6219C4.41033 15.6219 3.41576 15.0504 2.8631 14.2002L1.15105 15.1331C0.918195 15.2609 0.77417 15.4957 0.77417 15.7486V22.159H10.3191V15.8665C10.3191 15.6265 10.1898 15.4019 9.97513 15.2711L8.22944 14.2002Z" fill="#AE1E1E"/>
<path d="M10.3191 22.9335H0.774181C0.345887 22.9335 0 22.5865 0 22.1594V15.7489C0 15.2125 0.299768 14.7169 0.780985 14.4538L2.49303 13.5209C2.84837 13.3273 3.29103 13.4396 3.51254 13.7787C3.94122 14.4383 4.72107 14.8481 5.54628 14.8481C6.37225 14.8481 7.15172 14.4383 7.58002 13.7787C7.8091 13.4264 8.27519 13.3205 8.63356 13.5402L10.3796 14.6111C10.8261 14.8852 11.0933 15.3543 11.0933 15.8669V22.1594C11.0933 22.5865 10.7471 22.9335 10.3191 22.9335ZM1.54534 21.3852H9.54496V15.8669L8.41393 15.2057C7.67982 15.9621 6.65236 16.3972 5.54628 16.3972C4.43302 16.3972 3.40027 15.9557 2.66465 15.191L1.52114 15.814L1.54534 21.3852Z" fill="#151515"/>
<path d="M3.09674 19.8373V17.3877C3.84295 17.7491 4.67761 17.9453 5.5463 17.9453C6.41498 17.9453 7.2504 17.7498 7.99661 17.3877V19.8373H3.09674Z" fill="#AE1E1E"/>
<path d="M2.76141 9.59022V8.62061C2.76141 7.0197 4.01265 5.71289 5.54627 5.71289C7.07989 5.71289 8.33113 7.01894 8.33113 8.62061V9.59022C8.33113 11.1911 7.07989 12.4979 5.54627 12.4979C4.01265 12.4979 2.76141 11.1911 2.76141 9.59022Z" fill="white"/>
<path d="M5.54628 13.2723C3.58437 13.2723 1.98724 11.6208 1.98724 9.59119V8.62195C1.98724 6.59199 3.58437 4.94043 5.54628 4.94043C7.50895 4.94043 9.10608 6.59199 9.10608 8.62195V9.59119C9.10608 11.62 7.50895 13.2723 5.54628 13.2723ZM5.54628 6.48804C4.43756 6.48804 3.53561 7.44518 3.53561 8.62081V9.59043C3.53561 10.7672 4.43756 11.7232 5.54628 11.7232C6.65577 11.7232 7.55772 10.7661 7.55772 9.59043V8.62081C7.55772 7.44518 6.65577 6.48804 5.54628 6.48804Z" fill="#151515"/>
<path d="M46.8054 15.3452L44.1896 14.1299L42.8083 16.8225C42.6559 17.1196 42.2496 17.1196 42.0976 16.8225L40.7163 14.1299L38.1284 15.2121C37.8559 15.3259 37.6808 15.5777 37.6808 15.8555V22.159H47.225V15.9765C47.225 15.7092 47.0625 15.4654 46.8054 15.3452Z" fill="#AE2F2F"/>
<path d="M47.225 22.9332H37.6801C37.2521 22.9332 36.9059 22.5862 36.9059 22.1591V15.8556C36.9059 15.2655 37.2684 14.7329 37.8279 14.4985L40.4177 13.4163C40.7915 13.262 41.2213 13.4178 41.4047 13.7769L42.4529 15.8193L43.5012 13.7769C43.6902 13.4068 44.1359 13.2515 44.5169 13.4287L47.1328 14.6441C47.6601 14.8886 48 15.4122 48 15.9773V22.1591C47.9992 22.5862 47.6533 22.9332 47.225 22.9332ZM38.4505 21.3849H46.4508V16.0344L44.5384 15.1457L43.4966 17.1764C43.2921 17.5737 42.8926 17.8198 42.4522 17.8198C42.4514 17.8198 42.4514 17.8198 42.4507 17.8198C42.011 17.8198 41.6107 17.573 41.4077 17.1757L40.3534 15.1211L38.4255 15.9278L38.4505 21.3849ZM46.4788 16.0477H46.4871H46.4788Z" fill="#151515"/>
<path d="M40.0026 19.8373V17.8281L40.0314 17.8841C40.4997 18.8 41.4281 19.3689 42.4529 19.3689C43.4747 19.3689 44.4031 18.8008 44.873 17.8863L44.9025 17.8289V19.8365L40.0026 19.8373Z" fill="#AE2F2F"/>
<path d="M39.6862 9.55995V8.59071C39.6862 6.98943 40.9371 5.68262 42.4707 5.68262C44.0043 5.68262 45.2556 6.98867 45.2556 8.59071V9.55995C45.2556 11.1609 44.0043 12.4677 42.4707 12.4677C40.9371 12.4669 39.6862 11.1609 39.6862 9.55995Z" fill="white"/>
<path d="M42.4707 13.2411C40.5084 13.2411 38.9113 11.5899 38.9113 9.55994V8.5907C38.9113 6.56074 40.5084 4.90918 42.4707 4.90918C44.4327 4.90918 46.0298 6.56074 46.0298 8.5907V9.55994C46.0298 11.5899 44.4334 13.2411 42.4707 13.2411V13.2411ZM42.4707 6.45679C41.3613 6.45679 40.4597 7.41393 40.4597 8.58994V9.55918C40.4597 10.736 41.3613 11.692 42.4707 11.692C43.5795 11.692 44.4814 10.7352 44.4814 9.55918V8.58994C44.4814 7.41393 43.5795 6.45679 42.4707 6.45679V6.45679Z" fill="#151515"/>
</svg>
