<svg width="48" height="48" viewBox="0 0 48 48" fill="none" xmlns="http://www.w3.org/2000/svg">
<path fill-rule="evenodd" clip-rule="evenodd" d="M20.2374 12.071C19.6289 12.7429 19.1252 13.5173 18.7066 14.3196C18.4622 14.7878 18.2459 15.2711 18.0515 15.7623L17.8611 16.2438L17.3656 16.0937C16.4869 15.8276 15.6229 15.495 14.8039 15.079L14.0936 14.7182L14.6714 14.1696C16.0907 12.8219 17.7862 11.7922 19.6392 11.1608L21.6965 10.4599L20.2374 12.071ZM25.123 11.1164C26.7043 11.6688 27.8822 13.237 28.6283 14.6667C28.8205 15.0349 28.9936 15.4132 29.153 15.7967L29.4166 16.4303L28.7435 16.5643C27.4977 16.8124 26.2273 16.9529 24.9582 16.9998L24.375 17.0212V10.8551L25.123 11.1164ZM23.6249 17.7708V23.6251H17.3519L17.3735 23.0417C17.441 21.225 17.7004 19.3881 18.2043 17.6394L18.3492 17.1364L18.8613 17.2449C20.2476 17.5387 21.6662 17.7024 23.082 17.7517L23.6249 17.7708ZM17.2245 31.664C16.2189 31.9638 15.2271 32.3452 14.2967 32.832L13.8955 33.0418L13.6048 32.6947C11.7752 30.5106 10.6807 27.821 10.4771 24.9779L10.434 24.3753H16.6027L16.6217 24.9182C16.6923 26.9499 16.9973 29.0142 17.6011 30.9581L17.7698 31.5015L17.2245 31.664ZM24.3751 24.3752H30.6483L30.6265 24.9586C30.5529 26.9375 30.2514 28.9495 29.6515 30.8396L29.4983 31.3222L29.0023 31.2204C27.6594 30.9447 26.2875 30.7886 24.9177 30.7402L24.3751 30.7211V24.3752ZM30.9067 16.7908C31.9625 16.4678 33.0025 16.0516 33.9695 15.5165L34.3894 15.2842L34.685 15.6622C36.3435 17.7832 37.3308 20.3362 37.523 23.0226L37.5662 23.6252H31.3973L31.3784 23.0823C31.3128 21.1996 31.0467 19.2962 30.5302 17.4829L30.3791 16.9522L30.9067 16.7908ZM32.962 34.1649C31.6202 35.3501 30.0558 36.2623 28.3607 36.8391L26.3035 37.5389L27.7627 35.9288C28.3714 35.2572 28.8749 34.4822 29.2934 33.68C29.4666 33.348 29.6264 33.0088 29.7741 32.6647L29.9703 32.2079L30.4478 32.3466C31.2609 32.5827 32.0615 32.8744 32.8285 33.2341L33.6041 33.5978L32.962 34.1649ZM35.1679 8.00072C33.3238 8.00072 31.8237 6.50072 31.8237 4.65656C31.8237 2.81241 33.3237 1.3125 35.1679 1.3125C37.0121 1.3125 38.512 2.81241 38.512 4.65656C38.5119 6.50081 37.0121 8.00072 35.1679 8.00072ZM16.1763 43.3432C16.1763 45.1877 14.6765 46.6878 12.8321 46.6878C11.94 46.6878 11.0985 46.3387 10.4675 45.7081C9.83669 45.0775 9.48804 44.2351 9.48804 43.3432C9.48804 41.499 10.9879 39.9996 12.8321 39.9996C14.6763 39.9996 16.1763 41.499 16.1763 43.3432V43.3432Z" fill="#555555"/>
<path fill-rule="evenodd" clip-rule="evenodd" d="M31.9405 23.0628C31.87 21.0387 31.5733 19.0915 31.0713 17.3288C32.2294 16.9746 33.2973 16.5315 34.2419 16.0087C35.7861 17.9838 36.7724 20.4146 36.962 23.0628H31.9405ZM30.9362 31.125C31.5199 29.2455 31.864 27.137 31.9405 24.9378H36.962C36.7612 27.7406 35.6674 30.3003 33.9641 32.3336C33.0535 31.8574 32.034 31.4523 30.9362 31.125V31.125ZM29.7921 33.9402C29.9684 33.6028 30.1348 33.2503 30.291 32.8868C31.1133 33.1256 31.8844 33.4127 32.5896 33.7434C31.3159 34.8685 29.8213 35.7481 28.1795 36.3067C28.7666 35.6587 29.3086 34.8676 29.7921 33.9402V33.9402ZM17.709 32.8868C17.8652 33.2504 18.0315 33.6028 18.2078 33.9402C18.6914 34.8676 19.2333 35.6587 19.8204 36.3066C18.1787 35.748 16.684 34.8684 15.4102 33.7433C16.1156 33.4127 16.8867 33.1256 17.709 32.8868V32.8868ZM16.0595 24.9378C16.136 27.137 16.4801 29.2455 17.0638 31.125C15.966 31.4523 14.9465 31.8574 14.036 32.3336C12.3327 30.3003 11.2388 27.7406 11.0381 24.9378H16.0595ZM16.9288 17.3287C16.4268 19.0914 16.13 21.0386 16.0596 23.0627H11.0381C11.2276 20.4146 12.2139 17.9837 13.7581 16.0087C14.7027 16.5314 15.7706 16.9746 16.9288 17.3287ZM18.2079 14.0594C17.9613 14.5321 17.7353 15.0327 17.5285 15.5555C16.6361 15.2853 15.8066 14.9575 15.0587 14.5777C16.4056 13.2987 18.0254 12.3051 19.8205 11.6934C19.2334 12.3417 18.6914 13.133 18.2079 14.0594V14.0594ZM29.7921 14.0594C29.3085 13.133 28.7666 12.3418 28.1795 11.6934C29.9747 12.3051 31.5945 13.2987 32.9414 14.5777C32.1934 14.9575 31.3639 15.2853 30.4715 15.5555C30.2646 15.0327 30.0388 14.5321 29.7921 14.0594V14.0594ZM24.9376 16.4377C26.2197 16.3903 27.4633 16.2458 28.6339 16.0127C28.4772 15.6359 28.3101 15.272 28.1299 14.9271C27.2285 13.1997 26.1011 12.0539 24.9377 11.6475V16.4377H24.9376ZM24.9376 23.0628V18.3141C26.4339 18.2618 27.8885 18.0849 29.2552 17.7953C29.7186 19.4033 29.995 21.1921 30.0646 23.0628H24.9376ZM24.9376 30.1782V24.9378H30.0645C29.9881 26.9906 29.6631 28.9444 29.1155 30.6695C27.7865 30.3967 26.3788 30.229 24.9376 30.1782V30.1782ZM24.9376 32.0542V36.3526C26.101 35.9457 27.2284 34.8012 28.1298 33.0734C28.236 32.8696 28.3368 32.6577 28.4348 32.4432C27.3202 32.2314 26.1441 32.0993 24.9376 32.0542V32.0542ZM23.0624 32.0542C21.8559 32.0993 20.6797 32.2315 19.5652 32.4433C19.6633 32.6578 19.764 32.8696 19.8702 33.0735C20.7716 34.8013 21.899 35.9458 23.0624 36.3527V32.0542ZM23.0624 24.9378V30.1782C21.6212 30.2291 20.2134 30.3967 18.8845 30.6696C18.3369 28.9445 18.0118 26.9906 17.9356 24.9379H23.0624V24.9378ZM23.0624 18.3141V23.0627H17.9357C18.0052 21.1921 18.2815 19.4032 18.7448 17.7952C20.1116 18.085 21.5661 18.2619 23.0624 18.3141V18.3141ZM23.0624 16.4377V11.6475C21.899 12.0539 20.7716 13.1997 19.8702 14.9271C19.69 15.272 19.5229 15.6359 19.3661 16.0127C20.5367 16.2458 21.7803 16.3904 23.0624 16.4377V16.4377ZM24.0001 9.129C15.8001 9.129 9.1289 15.8004 9.1289 24.0003C9.1289 32.2006 15.8 38.8707 24.0001 38.8707C32.2 38.8707 38.8711 32.2006 38.8711 24.0003C38.8711 15.8004 32.1999 9.129 24.0001 9.129ZM24.0001 45.3988C35.799 45.3988 45.3983 35.7994 45.3983 24.0002C45.3983 17.9001 42.8243 12.1533 38.3082 8.09194C37.4796 8.84991 36.377 9.31341 35.1679 9.31341C32.6001 9.31341 30.5111 7.22428 30.5111 4.65675C30.5111 4.31044 30.5503 3.97303 30.6226 3.648C28.4901 2.95369 26.2666 2.60213 24 2.60213C12.2009 2.60213 2.60165 12.2012 2.60165 24.0003C2.60165 30.1004 5.17556 35.8477 9.69168 39.9086C10.5203 39.1502 11.6229 38.6872 12.832 38.6872C15.3997 38.6872 17.4888 40.7758 17.4888 43.3433C17.4888 43.6905 17.4496 44.0271 17.3773 44.3526C19.5101 45.0468 21.7335 45.3988 24.0001 45.3988ZM12.832 46.1254C12.0891 46.1254 11.3906 45.8357 10.8652 45.3103C10.3399 44.7854 10.0506 44.0862 10.0506 43.3433C10.0506 41.8096 11.2983 40.5621 12.8321 40.5621C14.3661 40.5621 15.6139 41.8096 15.6139 43.3433C15.6138 44.8775 14.3661 46.1254 12.832 46.1254V46.1254ZM35.168 1.87509C36.7018 1.87509 37.9495 3.12309 37.9495 4.65675C37.9495 6.19041 36.7018 7.43841 35.168 7.43841C33.6341 7.43841 32.3862 6.19041 32.3862 4.65675C32.3862 3.12309 33.6341 1.87509 35.168 1.87509ZM39.414 6.56494C39.6769 5.98209 39.8244 5.33644 39.8244 4.65675C39.8244 2.08913 37.7357 0 35.168 0C33.6181 0 32.2437 0.762 31.3968 1.92994C29.0177 1.13213 26.5334 0.727125 24.0001 0.727125C17.7835 0.727125 11.9392 3.14784 7.54331 7.54369C3.14765 11.9394 0.726746 17.7835 0.726746 24.0004C0.726746 30.7024 3.58209 37.0117 8.586 41.4357C8.32312 42.0181 8.17556 42.6642 8.17556 43.3435C8.17556 44.588 8.65996 45.7567 9.53943 46.6364C10.419 47.5153 11.5883 48 12.832 48C14.3819 48 15.7563 47.238 16.6032 46.071C18.9825 46.8679 21.4667 47.2734 24 47.2734C30.2165 47.2734 36.0609 44.8531 40.4567 40.4569C44.8521 36.0611 47.2733 30.2167 47.2733 24.0002C47.2734 17.2983 44.4179 10.989 39.414 6.56494V6.56494Z" fill="#151515"/>
</svg>
