<svg width="48" height="48" viewBox="0 0 48 48" fill="none" xmlns="http://www.w3.org/2000/svg">
<g clip-path="url(#clip0_140_835)">
<path d="M20.9202 26.8398C19.4346 29.0161 16.7582 30.4795 13.7049 30.4795C10.6512 30.4795 7.9748 29.0161 6.48917 26.8398L1.88672 29.2282C1.25807 29.5548 0.870972 30.1551 0.870972 30.8038V47.2165H26.5384V31.1058C26.5384 30.4908 26.191 29.9173 25.6142 29.5805L20.9202 26.8398Z" fill="#AE1E1E"/>
<path d="M26.5385 47.9905H0.870995C0.443828 47.9905 0.0968018 47.6438 0.0968018 47.2163V30.8036C0.0968018 29.8669 0.645693 28.9997 1.52989 28.5415L6.13234 26.1528C6.47936 25.9717 6.90729 26.0802 7.12805 26.4038C8.51843 28.4406 11.0383 29.7058 13.7049 29.7058C16.3711 29.7058 18.891 28.4406 20.2814 26.4038C20.5094 26.0685 20.96 25.9664 21.3111 26.1717L26.0051 28.9124C26.8242 29.3898 27.3127 30.2097 27.3127 31.1057V47.217C27.3127 47.6446 26.9668 47.9905 26.5385 47.9905V47.9905ZM1.64519 46.4421H25.7643V31.1057C25.7643 30.7666 25.5624 30.4468 25.2241 30.249L21.127 27.8569C19.3859 29.9962 16.6645 31.2542 13.7049 31.2542C10.7325 31.2542 8.00053 29.9859 6.26087 27.8308L2.24285 29.9156C1.87427 30.1069 1.64519 30.4475 1.64519 30.8036V46.4421Z" fill="#151515"/>
<path d="M13.7049 6.68262C9.72316 6.68262 6.47517 10.072 6.47517 14.2265V16.3755L4.47467 20.7996L7.24861 19.3827C8.43939 21.8508 10.8852 24.2842 13.7049 24.2842C17.6866 24.2842 20.9342 20.8944 20.9342 16.7403V14.2257C20.9342 10.072 17.6866 6.68262 13.7049 6.68262Z" fill="white"/>
<path d="M13.7049 25.0597C10.8202 25.0597 8.31313 22.8289 6.922 20.4198L4.82624 21.4896C4.53365 21.6408 4.17755 21.5871 3.93977 21.3603C3.70124 21.1335 3.63319 20.7804 3.7689 20.481L5.70023 16.209V14.2262C5.70023 9.64006 9.29108 5.9082 13.7041 5.9082C18.1168 5.9082 21.7077 9.64006 21.7077 14.2262V16.7409C21.7092 21.3278 18.1183 25.0597 13.7049 25.0597ZM7.24862 18.6098C7.33178 18.6098 7.41532 18.623 7.49584 18.6499C7.69317 18.7164 7.85572 18.8597 7.94645 19.0472C9.01777 21.2692 11.2141 23.5113 13.7049 23.5113C17.2644 23.5113 20.16 20.4746 20.16 16.7416V14.227C20.16 10.494 17.2636 7.45735 13.7049 7.45735C10.1458 7.45735 7.24937 10.494 7.24937 14.227V16.3761C7.24937 16.4861 7.22631 16.5953 7.18057 16.6951L6.09073 19.105L6.89668 18.6934C7.0063 18.6378 7.12727 18.6098 7.24862 18.6098ZM6.47518 16.3761H6.48312H6.47518Z" fill="#151515"/>
<path d="M46.097 27.3214L38.4556 23.7695L34.4214 31.6358C33.9764 32.5038 32.7902 32.5038 32.3449 31.6358L28.3113 23.7695L20.7516 26.9321C19.9555 27.2647 19.444 28.0004 19.444 28.8109V47.2259H47.3226V29.1647C47.3226 28.3845 46.8481 27.6707 46.097 27.3214Z" fill="white"/>
<path d="M47.3226 48.0003H19.4448C19.0172 48.0003 18.6706 47.6533 18.6706 47.2261V28.8111C18.6706 27.6895 19.3703 26.6714 20.4526 26.2174L28.0135 23.0556C28.3843 22.9003 28.8164 23.0564 29.0005 23.4167L33.034 31.2833C33.1368 31.4829 33.2971 31.5132 33.3841 31.5132C33.4699 31.5132 33.6301 31.4829 33.733 31.2833L37.7669 23.4167C37.9563 23.0458 38.4046 22.8916 38.7815 23.0681L46.4229 26.6193C47.4549 27.0994 48.096 28.075 48.096 29.1649V47.2261C48.0968 47.6533 47.7497 48.0003 47.3226 48.0003V48.0003ZM20.219 46.4519H46.5484V29.1649C46.5484 28.684 46.2505 28.2467 45.7712 28.0236L38.8049 24.7862L35.1112 31.9899C34.7722 32.651 34.111 33.0616 33.3848 33.0616C32.6586 33.0616 31.9967 32.6503 31.6576 31.9899L27.9507 24.7613L21.051 27.6467C20.5463 27.8581 20.2197 28.3159 20.2197 28.8118L20.219 46.4519Z" fill="#151515"/>
<path d="M21.7674 44.903V29.0245L27.2261 26.7412L30.2786 32.6947C30.8842 33.8753 32.0742 34.6087 33.3841 34.6087C34.6939 34.6087 35.884 33.8753 36.4884 32.6947L39.5032 26.8179L45 29.3726V44.903H21.7674Z" fill="#555555"/>
<path d="M25.2505 12.1488V9.30529C25.2505 4.60758 28.9045 0.774414 33.3841 0.774414C37.8636 0.774414 41.5176 4.60758 41.5176 9.30529V12.1488C41.5176 16.8476 37.8636 20.6797 33.3841 20.6797C28.9045 20.6797 25.2505 16.8476 25.2505 12.1488Z" fill="white"/>
<path d="M33.3841 21.4536C28.4724 21.4536 24.4763 17.2791 24.4763 12.1486V9.30507C24.4763 4.17452 28.4717 0 33.3841 0C38.2961 0 42.2918 4.17452 42.2918 9.30507V12.1486C42.2918 17.2799 38.2954 21.4536 33.3841 21.4536ZM33.3841 1.54839C29.3256 1.54839 26.0247 5.02848 26.0247 9.30507V12.1486C26.0247 16.4252 29.3256 19.9052 33.3841 19.9052C37.4422 19.9052 40.7435 16.4252 40.7435 12.1486V9.30507C40.7435 5.02848 37.4414 1.54839 33.3841 1.54839Z" fill="#151515"/>
</g>
<defs>
<clipPath id="clip0_140_835">
<rect width="48" height="48" fill="white"/>
</clipPath>
</defs>
</svg>
