<svg width="48" height="48" viewBox="0 0 48 48" fill="none" xmlns="http://www.w3.org/2000/svg">
<g clip-path="url(#clip0_140_661)">
<path d="M35.5214 24H12.2706L23.8722 44.0871H23.9202L35.5214 24Z" fill="white"/>
<path d="M23.913 3.87109L12.2706 24.0002H35.5214L23.913 3.87109Z" fill="#555555"/>
<path d="M47.1287 44.1291L35.5215 24L23.9203 44.0871L47.1287 44.1291Z" fill="#555555"/>
<path d="M12.2706 24L0.677002 44.0455L23.8722 44.0871L12.2706 24Z" fill="#555555"/>
<path d="M47.1287 44.9032C47.1279 44.9032 47.1279 44.9032 47.1272 44.9032L0.675476 44.8197C0.399896 44.8189 0.143595 44.6719 0.00675024 44.4318C-0.131985 44.1918 -0.131229 43.8977 0.00750633 43.6576L23.2436 3.48302C23.3819 3.24373 23.6367 3.09668 23.9138 3.09668H23.9146C24.1901 3.09668 24.4464 3.24449 24.5844 3.48378L47.7993 43.7419C47.938 43.9827 47.938 44.2768 47.7986 44.5169C47.6606 44.7562 47.4047 44.9032 47.1287 44.9032V44.9032ZM2.01746 43.2735L45.7871 43.3533L23.913 5.41926L2.01746 43.2735Z" fill="#151515"/>
</g>
<defs>
<clipPath id="clip0_140_661">
<rect width="48" height="48" fill="white"/>
</clipPath>
</defs>
</svg>
