<svg width="48" height="48" viewBox="0 0 48 48" fill="none" xmlns="http://www.w3.org/2000/svg">
<path d="M29.2998 22.1006C28.2089 23.6017 26.2424 24.6106 23.9996 24.6106C21.7568 24.6106 19.7911 23.6009 18.6994 22.1006L15.3188 23.7472C14.8573 23.9725 14.5734 24.3861 14.5734 24.8337V36.1511H33.4251V25.0419C33.4251 24.6174 33.17 24.2228 32.7462 23.9903L29.2998 22.1006Z" fill="white"/>
<path d="M33.4259 36.9262H14.5734C14.1458 36.9262 13.7992 36.5796 13.7992 36.152V24.8345C13.7992 24.0906 14.2513 23.4068 14.9797 23.0522L18.3604 21.4055C18.6972 21.2407 19.1043 21.3428 19.3258 21.6463C20.309 22.9981 22.0997 23.8373 23.9996 23.8373C25.8996 23.8373 27.691 22.9981 28.6735 21.6463C28.9018 21.3314 29.3297 21.2369 29.6714 21.4225L33.1186 23.3123C33.796 23.6831 34.1993 24.3295 34.1993 25.0428V36.1528C34.2001 36.5796 33.8534 36.9262 33.4259 36.9262V36.9262ZM15.3476 35.3778H32.6517V25.0421C32.6517 24.9056 32.5459 24.7623 32.3754 24.6693L29.4919 23.0885C28.1718 24.537 26.1687 25.3849 24.0004 25.3849C21.8204 25.3849 19.8074 24.5287 18.4874 23.0654L15.6587 24.4433C15.4666 24.537 15.3483 24.6867 15.3483 24.8338V35.3778H15.3476Z" fill="#151515"/>
<path d="M16.8959 33.8289V25.5624L18.2019 24.9258C19.7586 26.2042 21.8139 26.9327 23.9996 26.9327C26.1524 26.9327 28.1786 26.2258 29.7269 24.9832L31.1033 25.7374V33.8289H16.8959Z" fill="#555555"/>
<path d="M18.6896 15.4525V13.7185C18.6896 10.8539 21.0749 8.5166 23.9996 8.5166C26.9243 8.5166 29.3096 10.8539 29.3096 13.7185V15.4525C29.3096 18.3171 26.9243 20.6544 23.9996 20.6544C21.0749 20.6544 18.6896 18.3171 18.6896 15.4525V15.4525Z" fill="white"/>
<path d="M23.9996 21.4283C20.6451 21.4283 17.9154 18.747 17.9154 15.4522V13.7183C17.9154 10.4231 20.6451 7.74219 23.9996 7.74219C27.3541 7.74219 30.0838 10.4231 30.0838 13.7183V15.4522C30.0838 18.747 27.3541 21.4283 23.9996 21.4283V21.4283ZM23.9996 9.29055C21.499 9.29055 19.4638 11.2763 19.4638 13.7183V15.4522C19.4638 17.8939 21.4983 19.88 23.9996 19.88C26.501 19.88 28.5354 17.8939 28.5354 15.4522V13.7183C28.5354 11.2763 26.5002 9.29055 23.9996 9.29055V9.29055Z" fill="#151515"/>
<path d="M46.5431 29.1177L42.2904 27.2715L40.0454 31.3605C39.7974 31.8119 39.1374 31.8119 38.8894 31.3605L36.6443 27.2715L32.4381 28.9151C31.9955 29.0875 31.7104 29.47 31.7104 29.8919V39.4641H47.2251V30.0756C47.2251 29.67 46.9612 29.2992 46.5431 29.1177V29.1177Z" fill="#AE1E1E"/>
<path d="M47.2251 40.2379H31.7105C31.2833 40.2379 30.9363 39.8909 30.9363 39.4637V29.8915C30.9363 29.1499 31.4156 28.4834 32.1573 28.1938L36.3642 26.5495C36.7264 26.4085 37.1384 26.5582 37.324 26.898L39.4685 30.8037L41.613 26.898C41.8058 26.5472 42.233 26.4009 42.6 26.5604L46.8527 28.4067C47.5494 28.7095 48 29.3646 48 30.0752V39.4637C47.9993 39.8909 47.6522 40.2379 47.2251 40.2379ZM32.4846 38.6895H46.4509V30.0752C46.4509 29.983 46.3643 29.8832 46.2351 29.8273L42.6303 28.2619L40.7251 31.7325C40.4741 32.1887 39.9936 32.4726 39.4685 32.4726C38.9446 32.4726 38.463 32.1895 38.212 31.7325L36.2943 28.2396L32.7201 29.636C32.5791 29.6912 32.4846 29.7932 32.4846 29.8915V38.6895Z" fill="#151515"/>
<path d="M43.6513 22.3403L44.024 20.3545V18.9774C44.024 16.315 41.9899 14.1426 39.4972 14.1426C39.487 14.1426 39.4779 14.1441 39.4677 14.1441C39.4575 14.1441 39.4485 14.1426 39.4383 14.1426C36.9456 14.1426 34.9119 16.315 34.9119 18.9774V20.3545L35.2842 22.3403C35.8958 24.0081 37.3482 25.2302 39.0814 25.4007C39.199 25.4147 39.3184 25.423 39.4383 25.423C39.4485 25.423 39.4575 25.4215 39.4677 25.4215C39.4779 25.4215 39.487 25.423 39.4972 25.423C39.6171 25.423 39.7365 25.4147 39.8541 25.4007C41.5884 25.2302 43.0408 24.0081 43.6513 22.3403V22.3403Z" fill="white"/>
<path d="M39.498 26.197C39.2874 26.197 39.1381 26.1864 38.9899 26.1694C37.0261 25.9766 35.2801 24.5775 34.5573 22.6065C34.5426 22.5661 34.5308 22.5253 34.5229 22.4826L34.1505 20.4976C34.1422 20.4503 34.1377 20.4023 34.1377 20.3543V18.9772C34.1377 15.8843 36.5158 13.3682 39.4383 13.3682C42.4204 13.3682 44.7982 15.8843 44.7982 18.9772V20.3543C44.7982 20.4023 44.7933 20.4503 44.785 20.4976L44.4126 22.4826C44.4047 22.5245 44.3929 22.5653 44.3786 22.6065C43.6562 24.5768 41.9101 25.9766 39.9301 26.1709C39.7974 26.1864 39.6481 26.197 39.498 26.197V26.197ZM36.0319 22.131C36.5638 23.5168 37.7841 24.4947 39.1566 24.6293C39.2602 24.6418 39.3487 24.6478 39.4383 24.6478C39.4575 24.6478 39.5218 24.6478 39.5422 24.6494C39.5868 24.6478 39.6753 24.641 39.7634 24.6308C41.1514 24.4947 42.3724 23.5168 42.9036 22.131L43.2506 20.2825V18.9764C43.2506 16.7374 41.5673 14.9158 39.498 14.9158C39.4787 14.9158 39.4137 14.9158 39.394 14.9143C37.3698 14.9158 35.6861 16.7367 35.6861 18.9764V20.2825L36.0319 22.131ZM43.6513 22.34H43.6592H43.6513Z" fill="#151515"/>
<path d="M0.77417 30.643V39.4841H17.0607V30.643C17.0607 29.23 15.8915 28.085 14.4494 28.085H12.1816L8.91781 33.2007L5.65401 28.085H3.38552C1.943 28.0857 0.77417 29.2307 0.77417 30.643V30.643Z" fill="#555555"/>
<path d="M17.0607 40.2583H0.774181C0.347021 40.2583 0 39.9116 0 39.4841V30.6438C0 28.8058 1.51812 27.3115 3.38553 27.3115H5.65402C5.91787 27.3115 6.16396 27.4465 6.30648 27.6691L8.91858 31.7623L11.5299 27.6691C11.6724 27.4465 11.9185 27.3115 12.1824 27.3115H14.4501C16.3168 27.3115 17.8356 28.8066 17.8356 30.6438V39.4841C17.8349 39.9116 17.4879 40.2583 17.0607 40.2583ZM1.54836 38.7099H16.2865V30.6438C16.2865 29.6598 15.4628 28.8599 14.4494 28.8599H12.6061L9.57028 33.618C9.28564 34.0633 8.54926 34.0633 8.26499 33.618L5.22875 28.8599H3.38553C2.37206 28.8591 1.54836 29.6598 1.54836 30.6438V38.7099Z" fill="#151515"/>
<path d="M4.16577 20.4232V18.8601C4.16577 16.2782 6.3012 14.1719 8.91784 14.1719C11.5345 14.1719 13.6699 16.2782 13.6699 18.8601V20.4232C13.6699 23.005 11.5345 25.1117 8.91784 25.1117C6.3012 25.1117 4.16577 23.005 4.16577 20.4232Z" fill="white"/>
<path d="M8.91785 25.8857C5.87064 25.8857 3.3916 23.4354 3.3916 20.4229V18.8598C3.3916 15.8478 5.87064 13.3975 8.91785 13.3975C11.9651 13.3975 14.4441 15.8478 14.4441 18.8598V20.4229C14.443 23.4354 11.9643 25.8857 8.91785 25.8857ZM8.91785 14.9466C6.72459 14.9466 4.93996 16.7025 4.93996 18.8606V20.4237C4.93996 22.5822 6.72459 24.3381 8.91785 24.3381C11.1111 24.3381 12.8957 22.5822 12.8957 20.4237V18.8598C12.8946 16.7025 11.1111 14.9466 8.91785 14.9466Z" fill="#151515"/>
</svg>
