<svg width="48" height="48" viewBox="0 0 48 48" fill="none" xmlns="http://www.w3.org/2000/svg">
<path d="M38.08 23.9999C38.08 31.776 31.7761 38.0799 24 38.0799C16.224 38.0799 9.92004 31.776 9.92004 23.9999C9.92004 16.2239 16.224 9.91992 24 9.91992C31.7761 9.91992 38.08 16.2239 38.08 23.9999Z" fill="#555555"/>
<path d="M38.3676 14.4496C35.1763 9.6559 29.8273 6.79426 24.0583 6.79426C18.7153 6.79426 13.7715 9.20832 10.4936 13.4161L9.27185 12.4646C12.8446 7.87654 18.2337 5.24512 24.0583 5.24512C30.3471 5.24512 36.1773 8.36533 39.6559 13.5911L38.3676 14.4496Z" fill="#AE1E1E"/>
<path d="M39.7062 15.2253H36.8585V13.6769H38.9256L38.9101 11.8064L40.4584 11.7939L40.4796 14.4443C40.4811 14.6507 40.3999 14.8491 40.2551 14.9954C40.111 15.1425 39.913 15.2253 39.7062 15.2253V15.2253Z" fill="#AE1E1E"/>
<path d="M29.6231 41.6429L29.1646 40.1641C36.3686 37.9307 41.2088 31.3803 41.2088 23.8637C41.2088 21.7524 40.827 19.6929 40.0732 17.7419L41.5169 17.1836C42.3398 19.3126 42.7572 21.5604 42.7572 23.8629C42.7572 32.063 37.4788 39.208 29.6231 41.6429V41.6429Z" fill="#151515"/>
<path d="M30.7905 42.7394L28.3594 41.6579C28.1519 41.5656 27.9965 41.3876 27.9315 41.171C27.8672 40.954 27.9013 40.7196 28.0245 40.5291L29.4674 38.3018L30.7667 39.144L29.8159 40.6119L31.4184 41.3248L30.7905 42.7394Z" fill="#151515"/>
<path d="M24.0582 42.482C13.7472 42.482 5.35889 34.1299 5.35889 23.8643C5.35889 21.5678 6.44117 18.7708 7.23162 16.7284L7.34011 16.4482L8.78492 17.0062L8.67567 17.2875C7.92945 19.2158 6.90652 21.8574 6.90652 23.8643C6.90652 33.2767 14.6004 40.9336 24.0575 40.9336C24.2956 40.9336 24.5319 40.9291 24.7674 40.9196L24.829 42.4665C24.5746 42.4767 24.3168 42.482 24.0582 42.482V42.482Z" fill="#151515"/>
<path d="M8.48363 19.5614L7.68789 17.7839L6.03781 18.6174L5.3396 17.2358L7.71321 16.0355C7.90298 15.9403 8.12224 15.9255 8.32183 15.997C8.52067 16.0673 8.68247 16.2166 8.76941 16.4102L9.89744 18.9282L8.48363 19.5614Z" fill="#151515"/>
</svg>
