<svg width="48" height="48" viewBox="0 0 48 48" fill="none" xmlns="http://www.w3.org/2000/svg">
<g clip-path="url(#clip0_140_708)">
<path d="M24.7197 25.8648L26.0836 25.1318L28.0634 28.8168L26.6994 29.5494L24.7197 25.8648Z" fill="#151515"/>
<path d="M17.4117 28.8613H30.5829V30.4097H17.4117V28.8613Z" fill="#151515"/>
<path d="M19.6232 29.1115L21.9216 25.1094L23.2643 25.8805L20.9659 29.8827L19.6232 29.1115Z" fill="#151515"/>
<path d="M9.1217 24.5557H38.873V26.1041H9.1217V24.5557Z" fill="#151515"/>
<path d="M7.52344 23.736V24.0974C7.52344 24.7778 8.07724 25.3298 8.7592 25.3298H39.2355C39.9182 25.3298 40.4709 24.7778 40.4709 24.0974V20.0352H7.52344V23.736Z" fill="#D4DDE0"/>
<path d="M39.2356 26.1037H8.75925C7.6505 26.1037 6.74854 25.2037 6.74854 24.0972V19.2607H41.2451V24.0972C41.2451 25.2037 40.3432 26.1037 39.2356 26.1037V26.1037ZM8.29768 20.8091V24.0972C8.29768 24.3497 8.50521 24.5553 8.76 24.5553H39.2356C39.49 24.5553 39.6975 24.3497 39.6975 24.0972V20.8091H8.29768Z" fill="#151515"/>
<path d="M39.2355 0.774414H8.7592C8.07649 0.774414 7.52344 1.32633 7.52344 2.00677V20.0355H40.4709V2.00677C40.4709 1.32633 39.9175 0.774414 39.2355 0.774414V0.774414Z" fill="white"/>
<path d="M41.2451 20.8095H6.74927V2.00731C6.74927 0.900454 7.65123 0 8.75922 0H39.2348C40.3431 0 41.2451 0.900454 41.2451 2.00731V20.8095ZM8.29765 19.2611H39.6975V2.00731C39.6967 1.75441 39.4899 1.54839 39.2355 1.54839H8.75922C8.50443 1.54839 8.2969 1.75441 8.2969 2.00731V19.2611H8.29765Z" fill="#151515"/>
<path d="M29.7754 10.5049C29.7754 7.3216 27.1886 4.74121 23.9977 4.74121C20.8068 4.74121 18.22 7.3216 18.22 10.5049C18.22 13.6883 20.8068 16.2691 23.9977 16.2691C27.1886 16.2691 29.7754 13.6883 29.7754 10.5049Z" fill="#555555"/>
<path d="M23.9977 17.0425C20.3853 17.0425 17.4458 14.1098 17.4458 10.5049C17.4458 6.90049 20.3853 3.96777 23.9977 3.96777C27.6101 3.96777 30.5489 6.90049 30.5489 10.5049C30.5489 14.1098 27.6101 17.0425 23.9977 17.0425ZM23.9977 5.5154C21.2393 5.5154 18.9942 7.75369 18.9942 10.5042C18.9942 13.2551 21.2385 15.4934 23.9977 15.4934C26.7569 15.4934 29.0005 13.2551 29.0005 10.5042C29.0005 7.75369 26.7569 5.5154 23.9977 5.5154Z" fill="#AE2F2F"/>
<path d="M26.0671 9.86597L23.3551 8.30359C22.8255 7.99853 22.1628 8.38033 22.1628 8.99009V12.1141C22.1628 12.7242 22.8255 13.106 23.3551 12.8009L26.0671 11.2386C26.5967 10.9343 26.5967 10.171 26.0671 9.86597Z" fill="white"/>
<path d="M26.8552 35.9771C26.8552 34.4526 25.6164 33.2168 24.088 33.2168C22.5601 33.2168 21.3213 34.4526 21.3213 35.9771C21.3213 37.5013 22.5601 38.7371 24.088 38.7371C25.6164 38.7371 26.8552 37.5013 26.8552 35.9771V35.9771Z" fill="white"/>
<path d="M24.0881 39.5103C22.1356 39.5103 20.5471 37.9245 20.5471 35.9769C20.5471 34.0274 22.1356 32.4424 24.0881 32.4424C26.0409 32.4424 27.6294 34.0282 27.6294 35.9769C27.6294 37.9245 26.0417 39.5103 24.0881 39.5103V39.5103ZM24.0881 33.99C22.9895 33.99 22.0955 34.8806 22.0955 35.9762C22.0955 37.0705 22.9895 37.9612 24.0881 37.9612C25.187 37.9612 26.081 37.0705 26.081 35.9762C26.081 34.8814 25.187 33.99 24.0881 33.99V33.99Z" fill="#151515"/>
<path d="M29.7815 47.2255H18.2136V45.4533C18.2136 43.1137 20.1151 41.2168 22.4611 41.2168H25.5235C27.8695 41.2168 29.771 43.1137 29.771 45.4533L29.7815 47.2255Z" fill="#555555"/>
<path d="M30.5613 48.0004H17.4386V45.4541C17.4386 42.6918 19.6909 40.4434 22.4591 40.4434H25.5226C28.2913 40.4434 30.5436 42.6911 30.5436 45.4541L30.5613 48.0004ZM18.987 46.4521H29.002L28.9959 45.4594C28.9959 43.545 27.4381 41.9917 25.5234 41.9917H22.4603C20.5448 41.9917 18.9877 43.545 18.9877 45.4541L18.987 46.4521Z" fill="#151515"/>
<path d="M43.5205 35.9771C43.5205 34.4526 42.2817 33.2168 40.7537 33.2168C39.2254 33.2168 37.9866 34.4526 37.9866 35.9771C37.9866 37.5013 39.2254 38.7371 40.7537 38.7371C42.2817 38.7371 43.5205 37.5013 43.5205 35.9771V35.9771Z" fill="white"/>
<path d="M40.7537 39.5103C38.802 39.5103 37.2131 37.9245 37.2131 35.9769C37.2131 34.0274 38.802 32.4424 40.7537 32.4424C42.7062 32.4424 44.2947 34.0282 44.2947 35.9769C44.2947 37.9245 42.7062 39.5103 40.7537 39.5103V39.5103ZM40.7537 33.99C39.6552 33.99 38.7615 34.8806 38.7615 35.9762C38.7615 37.0705 39.6552 37.9612 40.7537 37.9612C41.8522 37.9612 42.7463 37.0705 42.7463 35.9762C42.7463 34.8814 41.8522 33.99 40.7537 33.99V33.99Z" fill="#151515"/>
<path d="M46.4464 47.2255H34.8781V45.4533C34.8781 43.1137 36.7795 41.2168 39.1255 41.2168H42.1883C44.5339 41.2168 46.4354 43.1137 46.4354 45.4533L46.4464 47.2255Z" fill="#555555"/>
<path d="M47.2258 48.0004H34.1046V45.4541C34.1046 42.6918 36.3569 40.4434 39.1255 40.4434H42.1883C44.9566 40.4434 47.2088 42.6911 47.2088 45.4541L47.2258 48.0004ZM35.653 46.4521H45.6672L45.6612 45.4594C45.6612 43.545 44.1034 41.9917 42.189 41.9917H39.1263C37.2108 41.9917 35.6541 43.545 35.6541 45.4541L35.653 46.4521Z" fill="#151515"/>
<path d="M10.1908 35.9771C10.1908 34.4526 8.95197 33.2168 7.42362 33.2168C5.89565 33.2168 4.65686 34.4526 4.65686 35.9771C4.65686 37.5013 5.89565 38.7371 7.42362 38.7371C8.95197 38.7371 10.1908 37.5013 10.1908 35.9771V35.9771Z" fill="white"/>
<path d="M7.42364 39.5103C5.47115 39.5103 3.88269 37.9245 3.88269 35.9769C3.88269 34.0274 5.47115 32.4424 7.42364 32.4424C9.37538 32.4424 10.9642 34.0282 10.9642 35.9769C10.9642 37.9245 9.37538 39.5103 7.42364 39.5103V39.5103ZM7.42364 33.99C6.3251 33.99 5.43108 34.8806 5.43108 35.9762C5.43108 37.0705 6.3251 37.9612 7.42364 37.9612C8.52218 37.9612 9.41583 37.0705 9.41583 35.9762C9.41583 34.8814 8.52218 33.99 7.42364 33.99V33.99Z" fill="#151515"/>
<path d="M13.1163 47.2255H1.54834V45.4533C1.54834 43.1137 3.4498 41.2168 5.79544 41.2168H8.85819C11.2042 41.2168 13.1057 43.1137 13.1057 45.4533L13.1163 47.2255Z" fill="#555555"/>
<path d="M13.8961 48.0004H0.77417V45.4541C0.77417 42.6918 3.02644 40.4434 5.79471 40.4434H8.85746C11.6261 40.4434 13.878 42.6911 13.878 45.4541L13.8961 48.0004ZM2.32256 46.4521H12.3376L12.3304 45.4594C12.3304 43.545 10.7729 41.9917 8.85822 41.9917H5.79471C3.88039 41.9917 2.32256 43.545 2.32256 45.4541V46.4521Z" fill="#151515"/>
</g>
<defs>
<clipPath id="clip0_140_708">
<rect width="48" height="48" fill="white"/>
</clipPath>
</defs>
</svg>
